<?xml version="1.0" encoding="utf-8"?>
<!-- Generator: Adobe Illustrator 26.0.0, SVG Export Plug-In . SVG Version: 6.00 Build 0)  -->
<svg version="1.1" id="图层_1" xmlns="http://www.w3.org/2000/svg" xmlns:xlink="http://www.w3.org/1999/xlink" x="0px" y="0px"
	 viewBox="0 0 1366 768" style="enable-background:new 0 0 1366 768;" xml:space="preserve">
<style type="text/css">
	.st0{fill:#ffffff;}
</style>
<g>
	<g>
		<path class="st0" d="M832.97,355.39c0.03-0.38,0.06-0.87,0.08-1.49c0.02-0.62,0.05-1.25,0.08-1.9c0.83-0.68,1.6-1.34,2.29-1.98
			c1.13-1.04,2.13-2.02,3-2.93c0.7-0.73,1.28-1.4,1.75-2.01c0.27-0.36,0.45-0.66,0.54-0.9c0.06-0.17,0.1-0.34,0.1-0.52
			c0-0.23-0.05-0.43-0.16-0.61c-0.1-0.17-0.27-0.32-0.49-0.44c-0.22-0.12-0.5-0.22-0.82-0.29c-0.32-0.07-0.68-0.11-1.09-0.11
			c-0.56,0-1.15,0.05-1.77,0.14c-0.62,0.1-1.47,0.28-2.54,0.55l0.31-1.72c0.07-0.34,0.18-1,0.31-1.98c2.11-0.35,4.08-0.53,5.92-0.53
			c0.84,0,1.65,0.08,2.41,0.23c0.77,0.15,1.46,0.41,2.07,0.77c0.61,0.36,1.06,0.79,1.37,1.27c0.3,0.48,0.46,1.01,0.46,1.57
			c0,0.37-0.04,0.73-0.13,1.09c-0.09,0.34-0.25,0.75-0.49,1.21c-0.3,0.58-0.68,1.14-1.13,1.7c-0.66,0.84-1.43,1.71-2.31,2.61
			c-0.83,0.85-1.83,1.8-3,2.86l1.32,0.01c0.31,0,0.93-0.01,1.86-0.02c0.92-0.02,1.57-0.03,1.93-0.05c0.36-0.02,0.8-0.05,1.33-0.11
			c-0.02,0.38-0.06,0.86-0.11,1.44c-0.05,0.58-0.11,1.28-0.16,2.11c-1.99-0.02-4.08-0.02-6.26-0.02
			C837.01,355.36,834.79,355.37,832.97,355.39z"/>
	</g>
	<g>
		<path class="st0" d="M615.76,382.67h-10.89c-1.73,3.52-4.12,6.34-7.15,8.62c6.67,1.73,12.68,3.58,17.24,5.31l-4.28,3.04
			c-4.34-1.79-10.46-3.79-17.4-5.64c-6.18,3.09-14.36,4.77-24.71,5.64c-0.33-1.19-1.03-2.66-1.63-3.58
			c8.29-0.54,15.01-1.62,20.38-3.52c-4.28-1.03-8.78-2-13.39-2.87c1.84-1.9,3.9-4.39,5.8-6.99H566.5v-3.41h15.61
			c1.03-1.52,1.95-3.04,2.71-4.44l4.12,1.08c-0.6,1.08-1.3,2.22-2.01,3.36h28.83V382.67z M585.19,355.79l-1.57,0.7h12.95
			c1.57-2.01,3.41-4.82,4.44-6.83l4.01,1.25c-1.25,1.9-2.71,3.9-4.01,5.58h12.52v3.36h-20.6v3.96h17.83v3.31h-17.83v3.96h22.33v3.41
			h-48.29v-3.41h21.9v-3.96h-17.51v-3.31h17.51v-3.96h-20.05v-3.36h12.3c-0.98-1.73-2.49-3.96-3.96-5.58l3.47-1.41
			C582.43,351.35,584.38,354,585.19,355.79z M584.54,382.67c-1.25,1.73-2.49,3.36-3.69,4.77c3.96,0.81,7.97,1.68,11.82,2.6
			c3.25-1.9,5.8-4.34,7.59-7.37H584.54z"/>
		<path class="st0" d="M635.87,353.51v35.23h-9.97v4.28h-3.69v-39.51h3.69H635.87z M632.24,357.15h-6.34v11.92h6.34V357.15z
			 M625.9,372.65v12.41h6.34v-12.41H625.9z M661.29,395.46c0.6,0,3.63,0,4.44,0c1.19,0,1.52-0.6,1.63-5.31
			c0.76,0.6,2.33,1.14,3.41,1.46c-0.43,5.96-1.52,7.37-4.61,7.37c-0.81,0-4.61,0-5.42,0c-3.9,0-4.82-1.08-4.82-4.93v-8.67h-6.45
			c-0.97,7.64-3.9,11.92-13.71,14.25c-0.38-0.92-1.41-2.49-2.17-3.2c8.73-1.84,11.27-5.04,12.09-11.06h-8.62v-3.41h33.22v3.41
			h-10.57v8.67C659.72,395.25,659.94,395.46,661.29,395.46z M669.69,364.63h-31.98v-3.25h13.6v-4.06h-10.84v-3.14h10.84v-4.28h3.85
			v4.28h11.6v3.14h-11.6v4.06h14.53V364.63z M643.24,376.06v-4.01h-4.77v-2.93h4.77v-4.01h3.2v4.01h4.93v2.93h-4.93v3.58l5.42-0.76
			l0.11,2.82c-4.93,0.81-9.87,1.57-13.82,2.22l-0.43-3.14L643.24,376.06z M663.19,369.12h5.47v2.93h-5.47v4.17h6.83v2.93h-16.91
			v-2.93h6.72v-4.17h-5.15v-2.93h5.15v-4.01h3.36V369.12z"/>
		<path class="st0" d="M690.07,353.51v35.23h-9.97v4.28h-3.69v-39.51h3.69H690.07z M686.44,357.15h-6.34v11.92h6.34V357.15z
			 M680.1,372.65v12.41h6.34v-12.41H680.1z M715.49,395.46c0.6,0,3.63,0,4.45,0c1.19,0,1.52-0.6,1.62-5.31
			c0.76,0.6,2.33,1.14,3.42,1.46c-0.43,5.96-1.52,7.37-4.61,7.37c-0.81,0-4.61,0-5.42,0c-3.9,0-4.82-1.08-4.82-4.93v-8.67h-6.45
			c-0.98,7.64-3.9,11.92-13.71,14.25c-0.38-0.92-1.41-2.49-2.17-3.2c8.73-1.84,11.27-5.04,12.09-11.06h-8.62v-3.41h33.22v3.41
			h-10.57v8.67C713.92,395.25,714.14,395.46,715.49,395.46z M723.89,364.63h-31.98v-3.25h13.6v-4.06h-10.84v-3.14h10.84v-4.28h3.85
			v4.28h11.6v3.14h-11.6v4.06h14.53V364.63z M697.44,376.06v-4.01h-4.77v-2.93h4.77v-4.01h3.2v4.01h4.93v2.93h-4.93v3.58l5.42-0.76
			l0.11,2.82c-4.93,0.81-9.86,1.57-13.82,2.22l-0.43-3.14L697.44,376.06z M717.39,369.12h5.47v2.93h-5.47v4.17h6.83v2.93h-16.91
			v-2.93h6.72v-4.17h-5.15v-2.93h5.15v-4.01h3.36V369.12z"/>
		<path class="st0" d="M731.32,398.17c-0.65-0.33-2.01-0.81-2.82-1.03c1.3-3.31,2.06-8.13,2.55-12.57l2.93,0.54
			C733.43,389.72,732.4,394.81,731.32,398.17z M746.98,381.16l-2.82,0.98l-0.7-2.93c-10.79,2.06-12.36,2.49-13.28,3.04
			c-0.16-0.76-0.76-2.44-1.14-3.36c1.03-0.22,2.11-1.63,3.63-3.63c0.76-0.98,2.38-3.41,4.23-6.5c-5.26,0.65-6.4,0.92-7.1,1.25
			c-0.22-0.76-0.76-2.49-1.19-3.47c0.87-0.16,1.73-1.3,2.66-2.98c0.98-1.57,4.28-7.86,6.02-13.71l3.42,1.41
			c-1.9,5.09-4.44,10.41-7.1,14.58l5.26-0.43c1.25-2.28,2.44-4.72,3.47-7.1l3.2,1.63c-3.09,6.29-6.94,12.68-10.95,17.72l7.97-1.35
			c-0.54-1.68-1.14-3.41-1.73-4.88l2.6-0.76C744.81,374.06,746.38,378.5,746.98,381.16z M740.37,395.95l-2.87,0.65
			c-0.11-3.14-0.7-7.86-1.35-11.49l2.76-0.54C739.56,388.2,740.21,392.86,740.37,395.95z M746.6,391.94l-2.76,0.92
			c-0.43-2.44-1.63-6.18-2.66-9.05l2.6-0.81C744.87,385.82,746.11,389.56,746.6,391.94z M756.79,392.54
			c2.55,1.79,5.58,2.33,9.81,2.33c3.41,0,9-0.27,12.63-0.71c-0.38,0.98-0.87,2.82-0.92,3.9c-2.87,0.16-8.67,0.33-11.82,0.33
			c-4.5,0-7.7-0.7-10.46-2.71c-1.73-1.36-3.14-2.76-4.12-2.76c-1.46,0-3.63,2.87-5.69,6.07l-2.22-3.31
			c2.17-2.82,4.45-4.99,6.45-5.75V372.7h-3.96v-3.47h7.15v20.92C754.52,390.7,755.49,391.62,756.79,392.54z M753.21,363.38
			l-3.04,1.35c-0.49-2.87-2.11-7.53-3.85-11l2.82-1.14C750.99,356.01,752.73,360.45,753.21,363.38z M774.03,353.89l2.17,1.08
			c-1.46,3.9-3.79,7.15-6.56,9.81c2.6,1.9,5.69,3.36,8.83,4.17c-0.7,0.7-1.62,2.06-2.11,2.98c-3.36-1.03-6.5-2.76-9.21-4.99
			c-3.09,2.33-6.56,4.12-10.03,5.31c-0.38-0.81-1.25-2.17-1.95-2.87c3.31-0.98,6.61-2.6,9.54-4.72c-1.46-1.46-2.71-3.09-3.74-4.77
			c-1.14,1.14-2.28,2.22-3.47,3.09c-0.49-0.65-1.73-1.9-2.44-2.44c3.85-2.6,7.37-6.61,9.27-11l3.09,0.92
			c-0.54,1.19-1.14,2.38-1.84,3.52h7.8L774.03,353.89z M774.89,382.29h-6.02v3.41h8.4v2.98h-8.4v4.45h-3.2v-4.45h-9.32v-2.98h9.32
			v-3.41h-6.88v-2.82h6.88v-3.14h-7.91v-2.87h7.91v-3.04h3.2v3.04h7.32v2.87h-7.32v3.14h6.02V382.29z M762.97,357.63
			c1.03,1.79,2.44,3.52,4.12,5.09c1.79-1.68,3.31-3.52,4.5-5.58h-8.24L762.97,357.63z"/>
		<path class="st0" d="M811.21,379.31h20.87v3.36H811.7c1.3,2.33,2.98,4.39,5.09,6.18c3.31-1.68,7.21-3.96,9.59-5.75l2.98,2.17
			c-2.93,2.01-6.67,4.01-9.92,5.53c3.63,2.33,8.13,3.96,13.33,4.77c-0.81,0.81-1.79,2.28-2.33,3.31
			c-10.84-2.17-18.37-7.48-22.55-15.99c-2.6,2.11-5.96,4.01-9.59,5.58v6.23l12.68-2.71c-0.11,0.98-0.16,2.33-0.16,3.09
			c-14.36,3.41-16.04,3.85-17.07,4.5c-0.22-0.87-0.97-2.38-1.52-3.04c0.87-0.54,2.33-1.63,2.33-4.12v-2.44
			c-3.14,1.14-6.34,2.11-9.38,2.76c-0.49-0.92-1.52-2.33-2.33-3.09c6.88-1.19,14.69-3.79,19.95-6.99h-19.02v-3.36h23.04
			c-0.49-1.14-1.14-2.38-1.68-3.41l3.79-1.03C809.8,376.22,810.67,377.96,811.21,379.31z M790.78,353.57h5.09v-3.85h3.58v3.85h9.59
			v2.87h-9.59v3.36h11.49v2.93h-11.49v2.87h10.08v6.67c0,1.52-0.22,2.28-1.41,2.71c-1.08,0.49-2.71,0.49-5.15,0.49
			c-0.16-0.81-0.71-1.84-1.08-2.6c1.79,0.05,3.2,0.05,3.63,0c0.49,0,0.6-0.16,0.6-0.6v-3.9h-6.67v8.89h-3.58v-8.89h-6.23v7.43h-3.25
			V365.6h9.49v-2.87h-12.3v-2.93h12.3v-3.36h-6.5c-0.65,1.25-1.35,2.33-2.06,3.25c-0.65-0.43-2.11-1.19-2.93-1.52
			c1.9-2.28,3.36-5.31,4.34-8.29l3.2,0.76C791.59,351.62,791.21,352.59,790.78,353.57z M818.85,370.32h-3.69v-17.83h3.69V370.32z
			 M827.2,376.39c-1.57,0.54-4.06,0.54-7.86,0.54c-0.22-0.98-0.81-2.38-1.3-3.36c2.98,0.11,5.58,0.11,6.4,0.05
			c0.76-0.05,1.03-0.27,1.03-0.92v-22.44h3.74v22.49C829.2,374.81,828.71,375.79,827.2,376.39z"/>
	</g>
</g>
</svg>
