<svg id="图层_1" data-name="图层 1" xmlns="http://www.w3.org/2000/svg" viewBox="0 0 202.42 186.21"><defs><style>.cls-1{fill:#ffffff;}</style></defs><path class="cls-1" d="M699.5,296A82.5,82.5,0,1,1,617,378.5,82.59,82.59,0,0,1,699.5,296m0-9A91.5,91.5,0,1,0,791,378.5,91.51,91.51,0,0,0,699.5,287Z" transform="translate(-608 -283.79)"/><path class="cls-1" d="M677.21,331.82v76.49H656.15v9h-9.6V331.82h30.66Zm-9.72,9.72H656.15V364.8h11.34Zm-11.34,32.75v24.3h11.34v-24.3Zm75.45,46.17h7.52c2.32,0,2.9-1.15,3.24-10.3,1.86,1.62,6.14,3.13,8.92,3.82-1,12.73-3.82,15.86-10.88,15.86H730.1c-9.38,0-11.46-2.9-11.46-12.5V401H707c-2,15.86-8.1,25-29.62,30.09a32,32,0,0,0-5.67-8.68c18.4-3.47,23.49-9.72,25.22-21.41H679.41v-8.79h70.71V401h-21.3v16.32C728.82,420.12,729.17,420.46,731.6,420.46Zm-39.81-41V372h-9.37v-7.41h9.37V356.7h8.57v7.87h9.83V372h-9.83v6.48l10.53-1.28.23,7.29c-10.42,1.51-21,2.9-29.39,4.17l-1.05-7.87Zm57.05-22.92h-68v-8.44h28.12v-7.41H686.59V332.4h22.33v-8.33h10.3v8.33h23.72v8.33H719.22v7.41h29.62Zm-13.07,8h10.76V372H735.77v7.4h13.65V387H713.55v-7.64h13.54V372H716.91v-7.41h10.18V356.7h8.68Z" transform="translate(-608 -283.79)"/><path class="cls-1" d="M777.43,323.66c.07-.89.13-2.08.18-3.56s.11-3,.19-4.54c2-1.63,3.81-3.2,5.47-4.73q4.05-3.74,7.17-7,2.49-2.61,4.19-4.79a9,9,0,0,0,1.29-2.15,3.48,3.48,0,0,0,.23-1.23,2.72,2.72,0,0,0-.38-1.45,3,3,0,0,0-1.17-1,7.65,7.65,0,0,0-2-.69,12.07,12.07,0,0,0-2.61-.26,27.61,27.61,0,0,0-4.23.35q-2.22.35-6.06,1.32l.74-4.1c.18-.82.42-2.4.75-4.73a86,86,0,0,1,14.13-1.26,30,30,0,0,1,5.77.54,15.32,15.32,0,0,1,4.93,1.85,9.43,9.43,0,0,1,3.26,3,6.85,6.85,0,0,1,1.09,3.74,11,11,0,0,1-.31,2.61,13.64,13.64,0,0,1-1.18,2.89,25.38,25.38,0,0,1-2.69,4.08,81.71,81.71,0,0,1-5.51,6.22q-3,3-7.16,6.82l3.15,0c.75,0,2.22,0,4.43-.06s3.74-.08,4.6-.11,1.92-.13,3.18-.26c0,.92-.15,2.06-.27,3.44s-.25,3.06-.39,5q-7.14,0-14.93-.05Q783.94,323.61,777.43,323.66Z" transform="translate(-608 -283.79)"/></svg>